<?xml version="1.0" encoding="utf-8"?>
<!-- Generator: Adobe Illustrator 22.0.0, SVG Export Plug-In . SVG Version: 6.00 Build 0)  -->
<svg version="1.1" id="Layer_1" xmlns="http://www.w3.org/2000/svg" xmlns:xlink="http://www.w3.org/1999/xlink" x="0px" y="0px"
	 viewBox="0 0 250 250" style="enable-background:new 0 0 250 250;" xml:space="preserve">
<style type="text/css">
	.st0{fill:#1C92C8;}
</style>
<g>
	<path class="st0" d="M242.9,197.6V16H7.3v181.6h73.6v24.6H61.3v9.8h127.6v-9.8h-19.6v-24.6H242.9z M17.1,25.8h216v132.5h-216V25.8z
		 M159.4,222.2H90.7v-24.6h68.7V222.2z M17.1,187.8v-19.7h216v19.7H17.1z"/>
	<rect x="154.5" y="35.6" class="st0" width="63.8" height="9.8"/>
	<rect x="120.2" y="35.6" class="st0" width="24.5" height="9.8"/>
	<rect x="100.5" y="35.6" class="st0" width="9.8" height="9.8"/>
	<rect x="80.9" y="35.6" class="st0" width="9.8" height="9.8"/>
	<rect x="159.4" y="109.3" class="st0" width="58.9" height="9.8"/>
	<rect x="139.8" y="109.3" class="st0" width="9.8" height="9.8"/>
	<rect x="120.2" y="109.3" class="st0" width="9.8" height="9.8"/>
	<rect x="169.2" y="84.7" class="st0" width="49.1" height="9.8"/>
	<rect x="100.5" y="84.7" class="st0" width="58.9" height="9.8"/>
	<rect x="115.2" y="60.2" class="st0" width="19.7" height="9.8"/>
	<rect x="144.7" y="60.2" class="st0" width="73.6" height="9.8"/>
	<rect x="31.8" y="60.2" class="st0" width="73.6" height="9.8"/>
	<rect x="125.1" y="133.8" class="st0" width="93.3" height="9.8"/>
	<polygon class="st0" points="98.5,124 84.8,137.7 91.7,144.6 112.4,124 91.7,103.3 84.8,110.3 	"/>
	<polygon class="st0" points="24.9,124 45.5,144.6 52.5,137.7 38.7,124 52.5,110.3 45.5,103.3 	"/>
	
		<rect x="42.2" y="119.1" transform="matrix(0.371 -0.9286 0.9286 0.371 -71.9972 141.7022)" class="st0" width="52.9" height="9.8"/>
</g>
</svg>
