<?xml version="1.0" standalone="no"?>
<!DOCTYPE svg PUBLIC "-//W3C//DTD SVG 20010904//EN"
 "http://www.w3.org/TR/2001/REC-SVG-20010904/DTD/svg10.dtd">
<svg version="1.0" xmlns="http://www.w3.org/2000/svg"
 width="70.000000pt" height="70.000000pt" viewBox="0 0 70.000000 70.000000"
 preserveAspectRatio="xMidYMid meet">
<metadata>
Created by potrace 1.11, written by Peter Selinger 2001-2013
</metadata>
<g transform="translate(0.000000,70.000000) scale(0.100000,-0.100000)"
fill="#000000" stroke="none">
<path d="M149 685 c-67 -36 -78 -105 -30 -188 32 -56 39 -103 21 -138 -6 -10
-34 -31 -63 -45 -66 -34 -79 -50 -73 -96 9 -79 79 -107 178 -71 39 14 53 15
87 4 23 -6 41 -16 41 -21 0 -6 4 -10 9 -10 16 0 -13 49 -38 62 -23 12 -66 12
-86 0 -16 -10 -65 -10 -65 0 0 5 -4 7 -8 4 -9 -5 -26 23 -35 54 -5 19 21 46
56 59 15 6 33 22 39 36 10 22 8 34 -11 78 -29 66 -28 96 5 125 48 42 106 18
139 -56 28 -65 76 -83 136 -52 45 24 108 -8 108 -55 0 -29 -18 -49 -67 -74
-54 -28 -67 -58 -46 -110 16 -41 6 -90 -18 -92 -7 0 -22 -2 -33 -5 -11 -2 -27
-1 -35 3 -34 14 -37 9 -17 -24 38 -65 99 -84 162 -50 46 24 58 78 30 134 -38
76 -19 119 71 162 95 45 120 112 67 171 -30 33 -83 45 -118 27 -10 -5 -40 -15
-65 -22 -77 -20 -108 0 -161 108 -23 49 -40 70 -64 81 -40 20 -82 20 -116 1z"/>
</g>
</svg>
